<?xml version="1.0" encoding="utf-8"?>
<!-- Generator: Adobe Illustrator 19.1.1, SVG Export Plug-In . SVG Version: 6.00 Build 0)  -->
<svg version="1.1" id="Calque_1" xmlns="http://www.w3.org/2000/svg" xmlns:xlink="http://www.w3.org/1999/xlink" x="0px" y="0px"
	 viewBox="0 0 500 500" style="enable-background:new 0 0 500 500;" xml:space="preserve">
<style type="text/css">
	.st0{fill:#79C546;}
	.st1{fill:#F2C110;}
	.st2{fill:#E3781D;}
	.st3{fill:#D11F22;}
	.st4{fill:#8F2F8F;}
	.st5{fill:#38A9D6;}
	.st6{fill:#444143;}
	.st7{fill:#FFFFFF;}
</style>
<path class="st0" d="M99.4,322.9c0-76.3,0-152.5,0-228.8c0-0.7,0.1-0.8,0.6-0.8c18,0,35.9,0,53.9,0c0,18.4,0,36.8,0,55.2
	c0,45.9,0,91.8,0,137.8c0,12.2,0,24.4,0,36.6l0,0C135.7,322.9,117.6,322.9,99.4,322.9z"/>
<path class="st1" d="M153.8,322.9c0-76.3,0-152.5,0-228.8c0-0.7,0.1-0.8,0.6-0.8c18,0,35.9,0,53.9,0c0,18.4,0,36.8,0,55.2
	c0,45.9,0,91.8,0,137.8c0,12.2,0,24.4,0,36.6l0,0C190.1,322.9,172,322.9,153.8,322.9z"/>
<path class="st2" d="M208.2,322.9c0-76.3,0-152.5,0-228.8c0-0.7,0.1-0.8,0.6-0.8c18,0,35.9,0,53.9,0c0,18.4,0,36.8,0,55.2
	c0,45.9,0,91.8,0,137.8c0,12.2,0,24.4,0,36.6l0,0C244.5,322.9,226.4,322.9,208.2,322.9z"/>
<path class="st3" d="M262.6,322.9c0-76.3,0-152.5,0-228.8c0-0.7,0.1-0.8,0.6-0.8c18,0,35.9,0,53.9,0c0,18.4,0,36.8,0,55.2
	c0,45.9,0,91.8,0,137.8c0,12.2,0,24.4,0,36.6l0,0C298.9,322.9,280.8,322.9,262.6,322.9z"/>
<path class="st4" d="M317,322.9c0-76.3,0-152.5,0-228.8c0-0.7,0.1-0.8,0.6-0.8c18,0,35.9,0,53.9,0c0,18.4,0,36.8,0,55.2
	c0,45.9,0,91.8,0,137.8c0,12.2,0,24.4,0,36.6l0,0C353.3,322.9,335.2,322.9,317,322.9z"/>
<path class="st5" d="M371.4,322.9c0-76.3,0-152.5,0-228.8c0-0.7,0.1-0.8,0.6-0.8c18,0,53.9,36.8,53.9,55.3c0,45.9,0,91.8,0,137.8
	c0,12.2,0,24.4,0,36.6l0,0C407.7,322.9,389.6,322.9,371.4,322.9z"/>
<path class="st6" d="M497.4,268.1c-6.7-22.6-30.3-35.8-53.1-29.6c-3.9,1.1-7.5,2.5-10.7,4.3c0-31,0-62.1-0.1-93.1
	c0-5.2-0.5-10.5-1.6-15.5c-7.7-34.6-37.1-58.2-72.5-58.4c-20.9-0.1-41.7,0-62.6-0.1c-2,0-4-0.8-5.9-1.7c-7.4-3.3-14.8-6.8-22.2-10.2
	c-0.7-0.3-1.5-0.6-2.5-0.9c1-1,1.7-1.8,2.4-2.5c7.3-7.3,14.6-14.6,21.9-21.9c3-3,4.1-6.4,2.9-10.5c-2.2-7.4-11.1-9.3-16.9-3.6
	c-10.3,10-20.4,20.2-30.7,30.3c-0.8,0.8-1.7,1.5-2.6,2.4c-10.5-10.6-20.8-20.9-31.1-31.2c-5.6-5.6-11.5-6.3-15.9-2
	c-4.4,4.4-3.8,10.4,1.8,15.9c7.6,7.6,15.2,15.2,23.3,23.3c-10,2.7-18.7,6.8-26.9,12.1c-1,0.6-2.4,0.6-3.7,0.6
	c-13.2,0-26.4,0-39.6,0.1c-5.2,0-10.5,0-15.6,0.7c-36.7,5.1-63.7,35.4-64,72.5c-0.2,31.3-0.3,62.6-0.2,93.9
	c-10.5-6.2-23.6-7.8-36-3.6c-21.9,7.4-34.2,30.4-28,52.8c4.7,16.8,16.3,26.9,33.3,31.4c1.6,21.8,3.2,43.3,4.7,64.7
	c0.9,12.2,6.3,21.8,16.3,28.8c7.4,5.2,15.9,7.9,24.8,8.1c26.1,0.7,52.3,1.1,78.5,1.2c30,0.1,60.1-0.6,90.1-0.7
	c49.7,0,99.4,0.3,149.1,0.3c7.2,0,14.6-0.6,21.7-1.8c18.9-3.3,32.4-16.9,33.9-33.8c0.8-9.4,1.3-18.8,2-28.2
	c0.9-12.9,1.9-25.9,2.8-38.7c1.7-0.5,3.1-0.9,4.4-1.3C491.4,314.9,504.2,290.8,497.4,268.1z M370.5,264.2c0,16.3-6.6,30.6-17.7,40.3
	c-32.8-7.4-66.4-9.5-100.3-9.5c-42.7,0-84.9,3.2-125.8,16.3c-14-7.6-24-21.4-26.8-38.8c-0.4-2.7-0.5-5.5-0.5-8.3
	c0-35.2-0.1-70.4,0-105.7c0-27.5,18.3-48.9,45.3-53.3c3-0.5,6.1-0.5,9.2-0.5c27,0,54.1,0,81.1,0c27.5,0,54.9-0.1,82.4,0
	c25.4,0.1,46.4,17,51.8,41.8c0.9,3.9,1.1,8,1.1,12C370.6,193.8,370.6,229,370.5,264.2z M402.2,252.9c-6,0-11.2-5.3-11.1-11.2
	c0.1-5.9,5.2-10.9,11.1-10.9c6,0,11.1,5.2,11.1,11.2C413.1,248,408.2,252.9,402.2,252.9z M391,210.9c0.2-5.9,5.3-10.9,11.2-10.8
	c6,0.1,11.1,5.4,10.9,11.4c-0.2,6-5,10.8-10.8,10.8C396.1,222.2,390.8,216.9,391,210.9z M402.3,191.6c-5.9,0.1-11.3-5.2-11.2-11.2
	c0.1-5.9,5.2-11,11.1-11c5.9,0,11,5.1,11.1,11C413.2,186.3,408.2,191.5,402.3,191.6z"/>
<path class="st6" d="M88.1,438c0,10,0.1,21.6-0.1,32.4c-0.1,3.8,1.6,6.2,4.8,7.6c13.3,5.7,26.8,5.7,40-0.1c1.9-0.8,4.4-3.3,4.4-5.1
	c0.4-11.5,0.2-23.7,0.2-34.7C120.8,438,104.7,438,88.1,438z"/>
<path class="st6" d="M416.8,441.6c0-1.3-0.2-2.6-0.3-3.6c-16.5,0-32.6,0-49.1,0c0,10,0.1,21.6-0.1,32.4c-0.1,3.8,1.5,6.3,4.7,7.6
	c13.3,5.6,26.7,5.6,40.1-0.1c3.4-1.5,4.9-4.1,4.8-8.1C416.7,460.4,416.9,451.1,416.8,441.6z"/>
<path class="st7" d="M100.5,387.4c-4,0.1-6.4-1.3-7.2-4.4L92,340.7c0-3,1.1-5.8,3.2-8.6c2.1-2.7,4.5-4,7.4-3.9h28.5
	c2.9-0.1,5.4,1.2,7.4,3.9c2.1,2.7,3.1,5.6,3.2,8.6l-0.4,14.7c0,1.1-0.6,1.6-1.8,1.6h-17.4c-1.3,0-1.9-0.6-1.9-1.6l0.1-2.9
	c0.1-3.3-0.4-5.2-1.8-5.7c-1.3-0.5-2.6-0.5-4,0c-1.3,0.5-1.9,2.4-1.8,5.7l0.7,24.7c0.3,1.2,1,1.9,2.1,2.2h1.9c1-0.3,1.7-1,2.1-2.2
	l0.1-4.6c0-1,0.6-1.6,1.9-1.6h16.8c1.4,0,2.1,0.6,2.1,1.6l-0.3,10.4c-0.8,3.1-3.2,4.6-7.2,4.4H100.5z"/>
<path class="st7" d="M149.7,376.7c-1.3,0-1.9-0.6-1.9-1.6l-1.6-45.1c0-3,1.1-5.8,3.2-8.6c2.1-2.7,4.5-4,7.4-3.9h28.4
	c2.9-0.1,5.4,1.2,7.4,3.9c2.1,2.7,3.1,5.6,3.2,8.6l-1.6,45.1c0,1-0.6,1.6-1.9,1.6h-16.6c-1.4,0-2.1-0.6-2.1-1.6l0.4-17.2h-6
	l0.4,17.2c0,1-0.7,1.6-2.1,1.6H149.7z M174.1,349.3l0.4-7.6c0.1-3.3-0.4-5.2-1.8-5.7c-1.3-0.5-2.6-0.5-4,0c-1.3,0.5-1.9,2.4-1.8,5.7
	l0.4,7.6H174.1z"/>
<path class="st7" d="M203.5,398.2c-1.3,0-1.9-0.6-1.9-1.6l-1.8-56c0-1,0.7-1.6,2.1-1.6h16.6c0.8,0.1,1.5,0.8,1.9,2.1l8.4,37.8
	l1.3-38.2c0-1,0.6-1.6,1.9-1.6h16.6c1.4,0,2.1,0.6,2.1,1.6l-1.8,56c0,1-0.6,1.6-1.9,1.6h-17.3c-1.5,0-2.5-0.5-3-1.5l-5.1-14.1
	l0.9,13.5c-0.2,1.3-1,2-2.4,2.1H203.5z"/>
<path class="st7" d="M258.3,376.7c-1.3,0-1.9-0.6-1.9-1.6l-1.6-45.1c0-3,1.1-5.8,3.2-8.6c2.1-2.7,4.5-4,7.4-3.9h28.4
	c2.9-0.1,5.4,1.2,7.4,3.9c2.1,2.7,3.1,5.6,3.2,8.6l-1.6,45.1c0,1-0.6,1.6-1.9,1.6h-16.6c-1.4,0-2.1-0.6-2.1-1.6l0.4-17.2h-6
	l0.4,17.2c0,1-0.7,1.6-2.1,1.6H258.3z M282.8,349.3l0.4-7.6c0.1-3.3-0.4-5.2-1.8-5.7c-1.3-0.5-2.6-0.5-4,0c-1.3,0.5-1.9,2.4-1.8,5.7
	l0.4,7.6H282.8z"/>
<path class="st7" d="M312.2,398.2c-1.3,0-1.9-0.6-1.9-1.6l-1.5-52.1c-0.2-3.1,1-5,3.5-5.6h35.7c2.9-0.1,5.4,1.2,7.4,3.9
	s3.1,5.6,3.2,8.6l-0.3,10.4c-0.3,7.1-1.4,11.7-3.1,13.9c-2.5,2.4-6.4,4.1-11.8,5.3c-5.4,1.2-9.7,1.7-13,1.7l0.4,13.8
	c0,1-0.7,1.6-2.1,1.6H312.2z M335.4,373.2c1.2-1.3,1.9-4.7,1.9-10c0-3-0.5-4.8-1.6-5.4c-1.1-0.6-3.1-0.8-6.1-0.8l0.4,17.4
	C332.2,374.4,333.9,374,335.4,373.2z"/>
<path class="st7" d="M366.4,387.4c-1.3,0-1.9-0.6-1.9-1.6l-1.5-52.1c-0.2-3.1,1-5,3.5-5.6h35.7c2.9-0.1,5.4,1.2,7.4,3.9
	c2.1,2.7,3.1,5.6,3.2,8.6l-0.3,10.4c-0.3,7.1-1.4,11.7-3.1,13.9c-2.5,2.4-6.4,4.1-11.8,5.3c-5.4,1.2-9.7,1.7-13,1.7l0.4,13.8
	c0,1-0.7,1.6-2.1,1.6H366.4z M389.7,362.4c1.2-1.3,1.9-4.7,1.9-10c0-3-0.5-4.8-1.6-5.4c-1.1-0.6-3.1-0.8-6.1-0.8l0.4,17.4
	C386.4,363.7,388.2,363.3,389.7,362.4z"/>
</svg>
